<svg width="128" height="94" viewBox="0 0 128 94" fill="none" xmlns="http://www.w3.org/2000/svg">
<path d="M99.6188 35.5945L99.6186 36.0737L100.097 36.0942C115.34 36.7478 127.5 49.3417 127.5 64.7838C127.5 80.6444 114.673 93.5 98.8515 93.5H29.1485C13.3275 93.5 0.5 80.6444 0.5 64.7838C0.5 48.9232 13.3275 36.0676 29.1485 36.0676H29.6485V35.5676C29.6485 16.1992 45.313 0.5 64.6337 0.5C83.9543 0.5 99.6187 16.1991 99.6188 35.5674C99.6188 35.5674 99.6188 35.5675 99.6188 35.5676L99.6188 35.5945Z" stroke="#FAFAFA"/>
<path d="M46.431 72.4375L63.9374 48.8392L81.444 72.4375H69.8891H69.3891V72.9375V93.5H58.5767V72.9375V72.4375H58.0767H46.431Z" stroke="#FAFAFA"/>
</svg>
