<?xml version="1.0" encoding="utf-8"?>
<!-- Generator: Adobe Illustrator 15.1.0, SVG Export Plug-In . SVG Version: 6.00 Build 0)  -->
<!DOCTYPE svg PUBLIC "-//W3C//DTD SVG 1.1//EN" "http://www.w3.org/Graphics/SVG/1.1/DTD/svg11.dtd">
<svg version="1.1" id="Layer_1" xmlns="http://www.w3.org/2000/svg" xmlns:xlink="http://www.w3.org/1999/xlink" x="0px" y="0px"
	 width="22px" height="22px" viewBox="0 0 22 22" enable-background="new 0 0 22 22" xml:space="preserve">
<path fill="#715502" d="M17.304,22c-0.013,0-0.024,0-0.036,0H3c-0.801,0-1.555-0.313-2.121-0.879C0.312,20.555,0,19.801,0,19v-7
	c0-0.801,0.312-1.555,0.879-2.121C1.445,9.312,2.199,9,3,9h2.35l3.736-8.406C9.247,0.233,9.605,0,10,0
	c1.069,0,2.073,0.416,2.828,1.172C13.584,1.927,14,2.932,14,4v3h4.66c0.425,0.003,0.856,0.086,1.251,0.263
	c0.396,0.179,0.754,0.444,1.036,0.77c0.284,0.325,0.493,0.707,0.616,1.13c0.12,0.417,0.149,0.861,0.086,1.286l-1.382,9.003
	c-0.107,0.713-0.471,1.365-1.021,1.834C18.703,21.747,18.015,22,17.304,22z M7,20h10.279c0.271,0.008,0.486-0.081,0.67-0.238
	c0.185-0.156,0.306-0.374,0.342-0.611l1.381-9.002c0.021-0.14,0.011-0.289-0.029-0.429c-0.04-0.138-0.109-0.265-0.204-0.373
	c-0.096-0.111-0.215-0.2-0.347-0.259C18.96,9.029,18.823,9.008,18.672,9H13c-0.553,0-1-0.448-1-1V4c0-0.534-0.208-1.036-0.586-1.414
	c-0.229-0.229-0.505-0.396-0.806-0.492L7,10.212V20z M3,11c-0.263,0-0.521,0.107-0.707,0.293C2.107,11.479,2,11.737,2,12v7
	c0,0.263,0.107,0.521,0.293,0.707C2.479,19.894,2.737,20,3,20h2v-9H3z"/>
</svg>
