<?xml version="1.0" encoding="utf-8"?>
<!-- Generator: Adobe Illustrator 20.1.0, SVG Export Plug-In . SVG Version: 6.00 Build 0)  -->
<svg version="1.1" id="Layer_1" xmlns="http://www.w3.org/2000/svg" xmlns:xlink="http://www.w3.org/1999/xlink" x="0px" y="0px" width="35px" height="35px" viewBox="0 0 35 35" style="enable-background:new 0 0 35 35;" xml:space="preserve">
<style type="text/css">
	.st0{fill:#D7003E;}
	.st1{fill:#D70040;}
	.st2{fill:#E03366;}
	.st3{fill:#E34B78;}
	.st4{fill:#E7658B;}
	.st5{fill:#EB7F9F;}
	.st6{fill:#EF99B2;}
	.st7{fill:#F2B2C5;}
	.st8{fill:#F7CCD9;}
	.st9{fill:#FCE5EB;opacity:0.5;}
	.st10{fill:#FFFFFF;opacity:0;}
</style>
<title>announce_read_locked_mine</title>
<circle class="st0" cx="32.8" cy="17.5" r="2.2"/>
<ellipse transform="matrix(0.866 -0.5001 0.5001 0.866 -0.7701 16.7016)" class="st0" cx="30.8" cy="9.8" rx="2.2" ry="2.2"/>
<ellipse transform="matrix(0.5 -0.866 0.866 0.5 8.9532 23.868)" class="st1" cx="25.1" cy="4.2" rx="2.2" ry="2.2"/>
<circle class="st2" cx="17.5" cy="2.2" r="2.2"/>
<ellipse transform="matrix(0.866 -0.5001 0.5001 0.866 -0.77 5.4927)" class="st3" cx="9.9" cy="4.2" rx="2.2" ry="2.2"/>
<ellipse transform="matrix(0.4999 -0.8661 0.8661 0.4999 -6.4438 8.5511)" class="st4" cx="4.2" cy="9.9" rx="2.2" ry="2.2"/>
<circle class="st5" cx="2.2" cy="17.5" r="2.2"/>
<ellipse transform="matrix(0.8659 -0.5002 0.5002 0.8659 -12.013 5.4634)" class="st6" cx="4.2" cy="25.1" rx="2.2" ry="2.2"/>
<ellipse transform="matrix(0.5 -0.866 0.866 0.5 -21.6742 23.9478)" class="st7" cx="9.9" cy="30.7" rx="2.2" ry="2.2"/>
<circle class="st8" cx="17.5" cy="32.8" r="2.2"/>
<ellipse transform="matrix(0.866 -0.5 0.5 0.866 -12.0077 16.7297)" class="st9" cx="25.2" cy="30.8" rx="2.2" ry="2.2"/>
<ellipse transform="matrix(0.5001 -0.866 0.866 0.5001 -6.3653 39.1691)" class="st10" cx="30.7" cy="25.1" rx="2.2" ry="2.2"/>
</svg>
