<?xml version="1.0" encoding="utf-8"?>
<!-- Generator: Adobe Illustrator 15.1.0, SVG Export Plug-In . SVG Version: 6.00 Build 0)  -->
<!DOCTYPE svg PUBLIC "-//W3C//DTD SVG 1.1//EN" "http://www.w3.org/Graphics/SVG/1.1/DTD/svg11.dtd">
<svg version="1.1" id="Layer_1" xmlns="http://www.w3.org/2000/svg" xmlns:xlink="http://www.w3.org/1999/xlink" x="0px" y="0px"
	 width="300px" height="178.334px" viewBox="0 65.333 300 178.334" enable-background="new 0 65.333 300 178.334"
	 xml:space="preserve">
<rect fill="#B8D8FF" width="300" height="300"/>
<polygon fill="#7C7C7C" points="52.444,232.037 114.143,174.201 155.276,212.396 296.498,112 308.667,122.776 308.495,258.5 
	0,258.5 0,183.887 "/>
<polygon fill="#AFAFAF" points="8.614,257.84 52.938,185.673 102.684,255.791 194.024,100.333 281.648,247.985 281.496,283.5 
	8.5,283.5 "/>
<circle fill="#EAEAEA" cx="50" cy="112" r="36.667"/>
<g>
	<path fill="#0022DF" d="M28.854,106.768h19.333v83.089H73.72v16.382H28.854V106.768z"/>
	<path fill="#0022DF" d="M139.69,154.731c0,37.486-13.282,52.688-32.173,52.688c-22.581,0-31.436-23.908-31.436-51.211
		c0-27.156,10.773-50.621,32.764-50.621C132.901,105.587,139.69,132.004,139.69,154.731z M96.153,156.503
		c0,22.58,4.28,34.092,12.102,34.092c8.117,0,11.216-14.759,11.216-34.978c0-17.415-2.657-33.206-11.364-33.206
		C100.434,122.411,96.153,135.104,96.153,156.503z"/>
	<path fill="#0022DF" d="M207.135,203.582c-4.279,1.771-13.43,3.542-20.661,3.542c-11.364,0-19.924-3.247-26.565-9.889
		c-8.56-8.265-13.134-23.022-12.839-40.143c0.443-36.157,21.105-51.211,42.208-51.211c7.527,0,13.135,1.476,16.234,2.952
		l-3.395,16.677c-2.804-1.476-6.493-2.213-11.363-2.213c-13.135,0-23.613,9.002-23.613,34.977c0,23.909,9.297,32.469,18.3,32.469
		c1.771,0,3.1-0.147,3.837-0.443v-24.056h-8.854v-15.791h26.712V203.582z"/>
	<path fill="#0022DF" d="M280.336,154.731c0,37.486-13.282,52.688-32.173,52.688c-22.58,0-31.436-23.908-31.436-51.211
		c0-27.156,10.773-50.621,32.764-50.621C273.547,105.587,280.336,132.004,280.336,154.731z M236.799,156.503
		c0,22.58,4.28,34.092,12.102,34.092c8.117,0,11.217-14.759,11.217-34.978c0-17.415-2.656-33.206-11.364-33.206
		C241.079,122.411,236.799,135.104,236.799,156.503z"/>
</g>
</svg>
