<?xml version="1.0" encoding="utf-8"?><!DOCTYPE svg PUBLIC "-//W3C//DTD SVG 1.1//EN" "http://www.w3.org/Graphics/SVG/1.1/DTD/svg11.dtd"><svg width="912" height="752" viewBox="0 0 912 752" xmlns="http://www.w3.org/2000/svg" xmlns:xlink="http://www.w3.org/1999/xlink"><view id="angle-down" viewBox="0 0 164 260"/><svg viewBox="-4 -4 328 520" width="164" height="260" xmlns="http://www.w3.org/2000/svg"><path d="M143 352.3L7 216.3c-9.4-9.4-9.4-24.6 0-33.9l22.6-22.6c9.4-9.4 24.6-9.4 33.9 0l96.4 96.4 96.4-96.4c9.4-9.4 24.6-9.4 33.9 0l22.6 22.6c9.4 9.4 9.4 24.6 0 33.9l-136 136c-9.2 9.4-24.4 9.4-33.8 0z"/></svg><view id="arrow-alt-circle-down" viewBox="164 0 260 260"/><svg viewBox="-4 -4 520 520" width="260" height="260" x="164" xmlns="http://www.w3.org/2000/svg"><path d="M504 256c0 137-111 248-248 248S8 393 8 256 119 8 256 8s248 111 248 248zM212 140v116h-70.9c-10.7 0-16.1 13-8.5 20.5l114.9 114.3c4.7 4.7 12.2 4.7 16.9 0l114.9-114.3c7.6-7.6 2.2-20.5-8.5-20.5H300V140c0-6.6-5.4-12-12-12h-64c-6.6 0-12 5.4-12 12z"/></svg><view id="arrow-right" viewBox="424 0 228 260"/><svg viewBox="-4 -4 456 520" width="228" height="260" x="424" xmlns="http://www.w3.org/2000/svg"><path fill="#fff" d="M190.5 66.9l22.2-22.2c9.4-9.4 24.6-9.4 33.9 0L441 239c9.4 9.4 9.4 24.6 0 33.9L246.6 467.3c-9.4 9.4-24.6 9.4-33.9 0l-22.2-22.2c-9.5-9.5-9.3-25 .4-34.3L311.4 296H24c-13.3 0-24-10.7-24-24v-32c0-13.3 10.7-24 24-24h287.4L190.9 101.2c-9.8-9.3-10-24.8-.4-34.3z"/></svg><view id="check" viewBox="520 520 28 28"/><svg width="28" height="28" viewBox="-2 -2 28 28" x="520" y="520" xmlns="http://www.w3.org/2000/svg"><path d="M20.973 8.068l-9.926 9.927a1.462 1.462 0 01-2.063 0L3.029 12.04a1.456 1.456 0 010-2.06 1.461 1.461 0 012.064 0l4.923 4.92 8.891-8.896a1.452 1.452 0 012.058 0c.577.575.577 1.496.008 2.064z"/></svg><view id="facebook" viewBox="0 260 228 260"/><svg viewBox="-4 -4 456 520" width="228" height="260" y="260" xmlns="http://www.w3.org/2000/svg"><path d="M448 56.7v398.5c0 13.7-11.1 24.7-24.7 24.7H309.1V306.5h58.2l8.7-67.6h-67v-43.2c0-19.6 5.4-32.9 33.5-32.9h35.8v-60.5c-6.2-.8-27.4-2.7-52.2-2.7-51.6 0-87 31.5-87 89.4v49.9h-58.4v67.6h58.4V480H24.7C11.1 480 0 468.9 0 455.3V56.7C0 43.1 11.1 32 24.7 32h398.5c13.7 0 24.8 11.1 24.8 24.7z"/></svg><view id="facebook-wh" viewBox="548 520 25 25"/><svg width="25" height="25" viewBox="237.5 237.5 25 25" x="548" y="520" xmlns="http://www.w3.org/2000/svg"><path fill="#FFF" d="M247.714 260.583v-9.432h-3.171v-3.748h3.171v-2.954c0-3.208 1.968-4.955 4.841-4.955 1.377 0 2.559.103 2.902.148v3.353h-1.992c-1.563 0-1.865.742-1.865 1.825v2.583h3.526l-.483 3.748H251.6v9.432"/></svg><view id="instagram" viewBox="573 520 25 25"/><svg width="25" height="25" viewBox="237.5 237.5 25 25" x="573" y="520" xmlns="http://www.w3.org/2000/svg"><path fill="#FFF" d="M250.028 244.619a5.367 5.367 0 00-5.369 5.381 5.366 5.366 0 005.369 5.381 5.366 5.366 0 005.37-5.381 5.367 5.367 0 00-5.37-5.381zm0 8.879c-1.92 0-3.49-1.568-3.49-3.498s1.565-3.499 3.49-3.499a3.499 3.499 0 010 6.997zm6.842-9.1a1.251 1.251 0 11-2.505 0c0-.693.561-1.255 1.253-1.255.691 0 1.252.562 1.252 1.255zm3.557 1.274c-.08-1.682-.464-3.17-1.692-4.398-1.225-1.227-2.71-1.611-4.388-1.695-1.729-.099-6.912-.099-8.642 0-1.672.08-3.159.464-4.388 1.69-1.229 1.228-1.608 2.717-1.692 4.398-.098 1.732-.098 6.927 0 8.66.079 1.681.463 3.17 1.692 4.397s2.71 1.611 4.388 1.695c1.729.098 6.912.098 8.642 0 1.678-.079 3.163-.464 4.388-1.695 1.225-1.228 1.607-2.717 1.692-4.397.097-1.732.097-6.922 0-8.655zm-2.235 10.515a3.538 3.538 0 01-1.99 1.996c-1.379.547-4.65.422-6.174.422-1.523 0-4.799.121-6.173-.422a3.537 3.537 0 01-1.991-1.996c-.547-1.381-.421-4.66-.421-6.187 0-1.527-.122-4.81.421-6.187a3.536 3.536 0 011.991-1.995c1.378-.548 4.65-.421 6.173-.421 1.524 0 4.799-.122 6.174.421a3.534 3.534 0 011.99 1.995c.547 1.382.421 4.66.421 6.187 0 1.526.126 4.81-.421 6.187z"/></svg><view id="odnoklassniki" viewBox="228 260 164 260"/><svg viewBox="-4 -4 328 520" width="164" height="260" x="228" y="260" xmlns="http://www.w3.org/2000/svg"><path d="M275.1 334c-27.4 17.4-65.1 24.3-90 26.9l20.9 20.6 76.3 76.3c27.9 28.6-17.5 73.3-45.7 45.7-19.1-19.4-47.1-47.4-76.3-76.6L84 503.4c-28.2 27.5-73.6-17.6-45.4-45.7 19.4-19.4 47.1-47.4 76.3-76.3l20.6-20.6c-24.6-2.6-62.9-9.1-90.6-26.9-32.6-21-46.9-33.3-34.3-59 7.4-14.6 27.7-26.9 54.6-5.7 0 0 36.3 28.9 94.9 28.9s94.9-28.9 94.9-28.9c26.9-21.1 47.1-8.9 54.6 5.7 12.4 25.7-1.9 38-34.5 59.1zM30.3 129.7C30.3 58 88.6 0 160 0s129.7 58 129.7 129.7c0 71.4-58.3 129.4-129.7 129.4s-129.7-58-129.7-129.4zm66 0c0 35.1 28.6 63.7 63.7 63.7s63.7-28.6 63.7-63.7c0-35.4-28.6-64-63.7-64s-63.7 28.6-63.7 64z"/></svg><view id="plus-circle" viewBox="392 260 260 260"/><svg viewBox="-4 -4 520 520" width="260" height="260" x="392" y="260" xmlns="http://www.w3.org/2000/svg"><path fill="#fff" d="M256 8C119 8 8 119 8 256s111 248 248 248 248-111 248-248S393 8 256 8zm144 276c0 6.6-5.4 12-12 12h-92v92c0 6.6-5.4 12-12 12h-56c-6.6 0-12-5.4-12-12v-92h-92c-6.6 0-12-5.4-12-12v-56c0-6.6 5.4-12 12-12h92v-92c0-6.6 5.4-12 12-12h56c6.6 0 12 5.4 12 12v92h92c6.6 0 12 5.4 12 12v56z"/></svg><view id="search" viewBox="652 0 260 260"/><svg viewBox="-4 -4 520 520" width="260" height="260" x="652" xmlns="http://www.w3.org/2000/svg"><path d="M505 442.7L405.3 343c-4.5-4.5-10.6-7-17-7H372c27.6-35.3 44-79.7 44-128C416 93.1 322.9 0 208 0S0 93.1 0 208s93.1 208 208 208c48.3 0 92.7-16.4 128-44v16.3c0 6.4 2.5 12.5 7 17l99.7 99.7c9.4 9.4 24.6 9.4 33.9 0l28.3-28.3c9.4-9.4 9.4-24.6.1-34zM208 336c-70.7 0-128-57.2-128-128 0-70.7 57.2-128 128-128 70.7 0 128 57.2 128 128 0 70.7-57.2 128-128 128z"/></svg><view id="twitter" viewBox="652 260 260 260"/><svg viewBox="-4 -4 520 520" width="260" height="260" x="652" y="260" xmlns="http://www.w3.org/2000/svg"><path d="M459.37 151.716c.325 4.548.325 9.097.325 13.645 0 138.72-105.583 298.558-298.558 298.558-59.452 0-114.68-17.219-161.137-47.106 8.447.974 16.568 1.299 25.34 1.299 49.055 0 94.213-16.568 130.274-44.832-46.132-.975-84.792-31.188-98.112-72.772 6.498.974 12.995 1.624 19.818 1.624 9.421 0 18.843-1.3 27.614-3.573-48.081-9.747-84.143-51.98-84.143-102.985v-1.299c13.969 7.797 30.214 12.67 47.431 13.319-28.264-18.843-46.781-51.005-46.781-87.391 0-19.492 5.197-37.36 14.294-52.954 51.655 63.675 129.3 105.258 216.365 109.807-1.624-7.797-2.599-15.918-2.599-24.04 0-57.828 46.782-104.934 104.934-104.934 30.213 0 57.502 12.67 76.67 33.137 23.715-4.548 46.456-13.32 66.599-25.34-7.798 24.366-24.366 44.833-46.132 57.827 21.117-2.273 41.584-8.122 60.426-16.243-14.292 20.791-32.161 39.308-52.628 54.253z"/></svg><view id="twitter-wh" viewBox="598 520 25 25"/><svg width="25" height="25" viewBox="237.5 237.5 25 25" x="598" y="520" xmlns="http://www.w3.org/2000/svg"><path fill="#FFF" d="M258.364 245.711c.014.187.014.374.014.561 0 5.707-4.343 12.282-12.281 12.282-2.446 0-4.718-.708-6.628-1.938.347.04.682.054 1.042.054a8.65 8.65 0 005.359-1.844 4.324 4.324 0 01-4.036-2.994c.267.041.534.066.815.066.388 0 .775-.053 1.136-.146a4.316 4.316 0 01-3.461-4.236v-.054a4.337 4.337 0 001.951.548 4.312 4.312 0 01-1.924-3.595c0-.801.214-1.537.588-2.178a12.265 12.265 0 008.9 4.517 4.863 4.863 0 01-.107-.989 4.315 4.315 0 014.316-4.317c1.244 0 2.366.521 3.154 1.363a8.494 8.494 0 002.739-1.042 4.302 4.302 0 01-1.897 2.379 8.639 8.639 0 002.486-.669 9.294 9.294 0 01-2.166 2.232z"/></svg><view id="vk" viewBox="0 520 260 231.56"/><svg viewBox="-4.5 -4.5 585 521" width="260" height="231.56" y="520" xmlns="http://www.w3.org/2000/svg"><path d="M545 117.7c3.7-12.5 0-21.7-17.8-21.7h-58.9c-15 0-21.9 7.9-25.6 16.7 0 0-30 73.1-72.4 120.5-13.7 13.7-20 18.1-27.5 18.1-3.7 0-9.4-4.4-9.4-16.9V117.7c0-15-4.2-21.7-16.6-21.7h-92.6c-9.4 0-15 7-15 13.5 0 14.2 21.2 17.5 23.4 57.5v86.8c0 19-3.4 22.5-10.9 22.5-20 0-68.6-73.4-97.4-157.4-5.8-16.3-11.5-22.9-26.6-22.9H38.8c-16.8 0-20.2 7.9-20.2 16.7 0 15.6 20 93.1 93.1 195.5C160.4 378.1 229 416 291.4 416c37.5 0 42.1-8.4 42.1-22.9 0-66.8-3.4-73.1 15.4-73.1 8.7 0 23.7 4.4 58.7 38.1 40 40 46.6 57.9 69 57.9h58.9c16.8 0 25.3-8.4 20.4-25-11.2-34.9-86.9-106.7-90.3-111.5-8.7-11.2-6.2-16.2 0-26.2.1-.1 72-101.3 79.4-135.6z"/></svg><view id="youtube" viewBox="260 520 260 231.56"/><svg viewBox="-4.5 -4.5 585 521" width="260" height="231.56" x="260" y="520" xmlns="http://www.w3.org/2000/svg"><path fill="#fff" d="M200 150h200v200H200z"/><path fill="red" d="M549.655 124.083c-6.281-23.65-24.787-42.276-48.284-48.597C458.781 64 288 64 288 64S117.22 64 74.629 75.486c-23.497 6.322-42.003 24.947-48.284 48.597-11.412 42.867-11.412 132.305-11.412 132.305s0 89.438 11.412 132.305c6.281 23.65 24.787 41.5 48.284 47.821C117.22 448 288 448 288 448s170.78 0 213.371-11.486c23.497-6.321 42.003-24.171 48.284-47.821 11.412-42.867 11.412-132.305 11.412-132.305s0-89.438-11.412-132.305zm-317.51 213.508V175.185l142.739 81.205-142.739 81.201z"/></svg></svg>