<?xml version="1.0" encoding="utf-8"?>
<!-- Generator: Adobe Illustrator 15.1.0, SVG Export Plug-In . SVG Version: 6.00 Build 0)  -->
<!DOCTYPE svg PUBLIC "-//W3C//DTD SVG 1.1//EN" "http://www.w3.org/Graphics/SVG/1.1/DTD/svg11.dtd">
<svg version="1.1" id="Layer_1" xmlns="http://www.w3.org/2000/svg" xmlns:xlink="http://www.w3.org/1999/xlink" x="0px" y="0px"
	 width="21px" height="21px" viewBox="239.5 239.5 21 21" enable-background="new 239.5 239.5 21 21" xml:space="preserve">
<path fill="#FFFFFF" d="M258.364,245.711c0.014,0.187,0.014,0.374,0.014,0.561c0,5.707-4.343,12.282-12.281,12.282
	c-2.446,0-4.718-0.708-6.628-1.938c0.347,0.04,0.682,0.054,1.042,0.054c2.018,0,3.875-0.682,5.359-1.844
	c-1.898-0.04-3.488-1.283-4.036-2.994c0.267,0.041,0.534,0.066,0.815,0.066c0.388,0,0.775-0.053,1.136-0.146
	c-1.978-0.4-3.461-2.138-3.461-4.236v-0.054c0.575,0.321,1.243,0.522,1.951,0.548c-1.163-0.775-1.924-2.098-1.924-3.595
	c0-0.801,0.214-1.537,0.588-2.178c2.125,2.62,5.318,4.33,8.9,4.517c-0.067-0.321-0.107-0.655-0.107-0.989
	c0-2.379,1.925-4.317,4.316-4.317c1.244,0,2.366,0.521,3.154,1.363c0.976-0.187,1.911-0.548,2.739-1.042
	c-0.32,1.002-1.002,1.845-1.897,2.379c0.869-0.094,1.711-0.334,2.486-0.669C259.941,244.334,259.207,245.096,258.364,245.711
	L258.364,245.711z"/>
</svg>
