<?xml version="1.0" encoding="utf-8"?>
<svg version="1.1" id="dealersair" xmlns="http://www.w3.org/2000/svg" xmlns:xlink="http://www.w3.org/1999/xlink" x="0px" y="0px" width="221px" height="56px" viewBox="0 0 221 56" enable-background="new 0 0 221 56" xml:space="preserve">
<path fill="#6699CC" d="M14.658,55.148v-1.286c-0.409,0.449-1.101,0.841-2.078,1.178s-1.985,0.504-3.028,0.504
	c-2.955,0-5.28-0.937-6.975-2.81c-1.695-1.874-2.542-4.485-2.542-7.836c0-3.351,0.972-6.078,2.918-8.182
	c1.945-2.104,4.383-3.157,7.312-3.157c1.61,0,3.074,0.33,4.393,0.99v-8.489l4.946-1.188v30.275H14.658z M14.658,39.021
	c-1.056-0.844-2.157-1.267-3.305-1.267c-1.979,0-3.502,0.603-4.571,1.811C5.714,40.773,5.18,42.504,5.18,44.76
	c0,4.405,2.124,6.608,6.371,6.608c0.475,0,1.059-0.141,1.752-0.426c0.692-0.283,1.144-0.57,1.355-0.86V39.021z"/>
<path fill="#6699CC" d="M43.469,46.066H28.331c0.093,1.688,0.673,3.001,1.741,3.937c1.068,0.937,2.506,1.405,4.314,1.405
	c2.255,0,3.971-0.587,5.145-1.761l1.919,3.78c-1.741,1.411-4.34,2.117-7.796,2.117c-3.232,0-5.789-0.946-7.667-2.84
	c-1.88-1.893-2.82-4.534-2.82-7.924c0-3.338,1.032-6.042,3.097-8.113c2.064-2.071,4.542-3.107,7.43-3.107
	c3.074,0,5.541,0.917,7.401,2.751c1.859,1.833,2.79,4.168,2.79,7.004C43.885,43.921,43.746,44.839,43.469,46.066z M28.51,42.346
	h10.408c-0.343-3.1-2.058-4.65-5.145-4.65C30.95,37.695,29.196,39.246,28.51,42.346z"/>
<path fill="#6699CC" d="M59.635,53.031c-0.449,0.738-1.23,1.342-2.345,1.81c-1.115,0.468-2.279,0.703-3.492,0.703
	c-2.283,0-4.076-0.571-5.383-1.711c-1.306-1.141-1.958-2.761-1.958-4.858c0-2.454,0.92-4.374,2.761-5.759
	c1.84-1.384,4.455-2.077,7.845-2.077c0.58,0,1.267,0.099,2.059,0.297c0-2.494-1.577-3.74-4.729-3.74c-1.861,0-3.417,0.31-4.67,0.93
	l-1.069-3.839c1.702-0.817,3.727-1.227,6.075-1.227c3.231,0,5.599,0.736,7.104,2.207c1.504,1.471,2.256,4.257,2.256,8.36v4.532
	c0,2.823,0.567,4.597,1.702,5.323c-0.41,0.712-0.865,1.151-1.366,1.315c-0.501,0.165-1.076,0.248-1.722,0.248
	c-0.712,0-1.352-0.264-1.919-0.792C60.215,54.225,59.833,53.651,59.635,53.031z M59.16,45.175c-0.844-0.171-1.478-0.257-1.899-0.257
	c-3.905,0-5.857,1.279-5.857,3.838c0,1.899,1.101,2.85,3.304,2.85c2.969,0,4.453-1.484,4.453-4.453V45.175z"/>
<path fill="#6699CC" d="M70.281,26.061l4.947-1.188v23.824c0,2.612,0.778,4.169,2.335,4.669c-0.766,1.452-2.072,2.177-3.918,2.177
	c-2.243,0-3.364-1.556-3.364-4.669V26.061z"/>
<path fill="#6699CC" d="M100.299,46.066H85.161c0.093,1.688,0.673,3.001,1.742,3.937c1.068,0.937,2.506,1.405,4.313,1.405
	c2.256,0,3.97-0.587,5.145-1.761l1.919,3.78c-1.741,1.411-4.34,2.117-7.797,2.117c-3.232,0-5.787-0.946-7.667-2.84
	c-1.88-1.893-2.82-4.534-2.82-7.924c0-3.338,1.031-6.042,3.097-8.113c2.064-2.071,4.541-3.107,7.43-3.107
	c3.074,0,5.541,0.917,7.4,2.751c1.86,1.833,2.79,4.168,2.79,7.004C100.714,43.921,100.576,44.839,100.299,46.066z M85.34,42.346
	h10.408c-0.343-3.1-2.058-4.65-5.145-4.65C87.78,37.695,86.025,39.246,85.34,42.346z"/>
<path fill="#6699CC" d="M116.92,38.566c-0.884-0.581-1.854-0.871-2.909-0.871c-1.147,0-2.167,0.521-3.057,1.563
	c-0.89,1.042-1.335,2.315-1.335,3.818v12.071h-4.947V33.956h4.947v1.939c1.386-1.557,3.226-2.335,5.521-2.335
	c1.688,0,2.981,0.257,3.878,0.772L116.92,38.566z"/>
<path fill="#6699CC" d="M120.68,53.782l1.761-3.937c1.478,1.174,3.147,1.761,5.006,1.761c1.926,0,2.89-0.686,2.89-2.058
	c0-0.805-0.291-1.465-0.871-1.979c-0.581-0.514-1.708-1.121-3.384-1.82c-3.654-1.517-5.48-3.641-5.48-6.372
	c0-1.833,0.699-3.262,2.097-4.284c1.398-1.022,3.186-1.534,5.363-1.534c2.203,0,4.274,0.495,6.212,1.484l-1.424,3.839
	c-1.083-0.923-2.585-1.385-4.512-1.385c-1.729,0-2.592,0.687-2.592,2.058c0,0.542,0.284,1.029,0.851,1.464
	c0.567,0.436,1.781,1.019,3.641,1.751c1.861,0.732,3.199,1.619,4.018,2.661c0.817,1.043,1.227,2.302,1.227,3.779
	c0,1.966-0.729,3.513-2.187,4.64c-1.458,1.128-3.44,1.692-5.946,1.692c-1.411,0-2.542-0.116-3.393-0.347
	S122.012,54.496,120.68,53.782z"/>
<path fill="#6699CC" d="M195.306,30.698V13.164h-2.774v-4.15h7.896v21.685H195.306z M197.918,0.61c0.81,0,1.501,0.287,2.075,0.86
	c0.573,0.574,0.861,1.265,0.861,2.075c0,0.81-0.288,1.502-0.861,2.075c-0.574,0.574-1.266,0.86-2.075,0.86
	c-0.811,0-1.502-0.286-2.076-0.86c-0.574-0.573-0.86-1.266-0.86-2.075c0-0.81,0.286-1.501,0.86-2.075S197.107,0.61,197.918,0.61z"/>
<path fill="#6699CC" d="M218.854,13.73c-0.904-0.594-1.897-0.891-2.976-0.891c-1.174,0-2.217,0.534-3.128,1.599
	c-0.912,1.067-1.367,2.37-1.367,3.908v12.352h-5.062V9.013h5.062v1.984c1.417-1.593,3.3-2.389,5.649-2.389
	c1.728,0,3.05,0.263,3.969,0.789L218.854,13.73z"/>
<polygon fill="#6699CC" points="164.201,25.146 171.92,13.125 179.601,25.146 187.678,25.146 171.979,0.425 156.232,25.146 "/>
<polygon fill="#6699CC" points="144.604,55.66 160.348,31.145 152.411,31.145 136.795,55.66 "/>
<polygon fill="#6699CC" points="207.056,55.66 191.487,31.145 183.434,31.145 199.097,55.66 "/>
</svg>
