<?xml version="1.0" encoding="utf-8"?>
<!-- Generator: Adobe Illustrator 15.1.0, SVG Export Plug-In  -->
<!DOCTYPE svg PUBLIC "-//W3C//DTD SVG 1.1//EN" "http://www.w3.org/Graphics/SVG/1.1/DTD/svg11.dtd" [
	<!ENTITY ns_flows "http://ns.adobe.com/Flows/1.0/">
]>
<svg version="1.1"
	 xmlns="http://www.w3.org/2000/svg" xmlns:xlink="http://www.w3.org/1999/xlink" xmlns:a="http://ns.adobe.com/AdobeSVGViewerExtensions/3.0/"
	 x="0px" y="0px" width="221px" height="56px" viewBox="-0.308 -0.567 221 56" enable-background="new -0.308 -0.567 221 56"
	 xml:space="preserve">
<defs>
</defs>
<polygon fill="#6699CC" points="163.784,24.665 171.486,12.67 179.149,24.665 187.208,24.665 171.544,0 155.835,24.665 "/>
<polygon fill="#6699CC" points="144.233,55.107 159.941,30.648 152.023,30.648 136.443,55.107 "/>
<polygon fill="#6699CC" points="206.541,55.107 191.008,30.648 182.973,30.648 198.601,55.107 "/>
<path fill="#6699CC" d="M14.589,54.597v-1.284c-0.408,0.448-1.1,0.839-2.073,1.175c-0.975,0.335-1.981,0.503-3.021,0.503
	c-2.948,0-5.267-0.934-6.958-2.803C0.846,50.319,0,47.713,0,44.37c0-3.343,0.971-6.063,2.911-8.163
	c1.941-2.099,4.374-3.149,7.296-3.149c1.604,0,3.065,0.33,4.382,0.988v-8.469l4.935-1.184v30.205H14.589z M14.589,38.507
	c-1.053-0.842-2.153-1.264-3.297-1.264c-1.975,0-3.495,0.602-4.56,1.807c-1.066,1.204-1.6,2.932-1.6,5.182
	c0,4.396,2.12,6.593,6.357,6.593c0.474,0,1.056-0.141,1.748-0.424c0.69-0.283,1.142-0.57,1.353-0.859V38.507z"/>
<path fill="#6699CC" d="M43.333,45.535H28.23c0.092,1.685,0.671,2.995,1.737,3.929c1.066,0.935,2.501,1.401,4.304,1.401
	c2.25,0,3.961-0.585,5.133-1.757l1.915,3.771c-1.737,1.409-4.33,2.112-7.778,2.112c-3.225,0-5.775-0.944-7.649-2.833
	c-1.876-1.888-2.813-4.524-2.813-7.907c0-3.33,1.029-6.027,3.089-8.093c2.06-2.067,4.531-3.101,7.414-3.101
	c3.066,0,5.528,0.915,7.384,2.745c1.855,1.83,2.784,4.159,2.784,6.988C43.748,43.396,43.609,44.311,43.333,45.535z M28.408,41.823
	h10.384c-0.343-3.092-2.054-4.639-5.133-4.639C30.843,37.184,29.092,38.73,28.408,41.823z"/>
<path fill="#6699CC" d="M59.462,52.483c-0.448,0.737-1.228,1.34-2.339,1.807c-1.113,0.467-2.274,0.701-3.484,0.701
	c-2.277,0-4.067-0.569-5.37-1.708c-1.303-1.138-1.955-2.754-1.955-4.847c0-2.448,0.918-4.363,2.754-5.746
	c1.836-1.381,4.445-2.072,7.828-2.072c0.579,0,1.263,0.099,2.052,0.296c0-2.488-1.573-3.732-4.717-3.732
	c-1.856,0-3.409,0.31-4.66,0.929l-1.065-3.831c1.697-0.815,3.718-1.225,6.061-1.225c3.225,0,5.587,0.734,7.087,2.202
	c1.5,1.468,2.25,4.248,2.25,8.341v4.521c0,2.816,0.566,4.586,1.698,5.31c-0.409,0.711-0.863,1.149-1.363,1.313
	c-0.5,0.164-1.073,0.247-1.717,0.247c-0.711,0-1.349-0.264-1.916-0.79C60.041,53.675,59.659,53.103,59.462,52.483z M58.987,44.646
	c-0.841-0.171-1.473-0.257-1.895-0.257c-3.896,0-5.844,1.277-5.844,3.83c0,1.895,1.1,2.843,3.297,2.843
	c2.961,0,4.441-1.48,4.441-4.442V44.646z"/>
<path fill="#6699CC" d="M70.083,25.576l4.935-1.184v23.769c0,2.605,0.777,4.159,2.33,4.659c-0.764,1.448-2.067,2.172-3.909,2.172
	c-2.238,0-3.356-1.553-3.356-4.659V25.576z"/>
<path fill="#6699CC" d="M100.031,45.535H84.928c0.093,1.685,0.671,2.995,1.738,3.929c1.066,0.935,2.501,1.401,4.305,1.401
	c2.249,0,3.961-0.585,5.132-1.757l1.915,3.771c-1.737,1.409-4.33,2.112-7.778,2.112c-3.226,0-5.775-0.944-7.65-2.833
	c-1.876-1.888-2.813-4.524-2.813-7.907c0-3.33,1.029-6.027,3.09-8.093c2.059-2.067,4.53-3.101,7.413-3.101
	c3.066,0,5.528,0.915,7.383,2.745c1.855,1.83,2.784,4.159,2.784,6.988C100.446,43.396,100.308,44.311,100.031,45.535z
	 M85.107,41.823h10.384c-0.342-3.092-2.053-4.639-5.133-4.639C87.541,37.184,85.791,38.73,85.107,41.823z"/>
<path fill="#6699CC" d="M116.614,38.053c-0.881-0.579-1.849-0.869-2.902-0.869c-1.144,0-2.162,0.521-3.05,1.56
	c-0.889,1.04-1.332,2.31-1.332,3.812v12.042h-4.935V33.453h4.935v1.935c1.381-1.553,3.218-2.331,5.508-2.331
	c1.685,0,2.974,0.257,3.869,0.771L116.614,38.053z"/>
<path fill="#6699CC" d="M120.365,53.234l1.758-3.929c1.474,1.172,3.139,1.757,4.994,1.757c1.921,0,2.882-0.684,2.882-2.053
	c0-0.802-0.29-1.461-0.869-1.975c-0.579-0.512-1.705-1.118-3.376-1.816c-3.645-1.514-5.468-3.632-5.468-6.357
	c0-1.829,0.698-3.254,2.093-4.274c1.395-1.02,3.179-1.531,5.35-1.531c2.197,0,4.264,0.495,6.198,1.481l-1.42,3.831
	c-1.08-0.922-2.58-1.382-4.501-1.382c-1.725,0-2.586,0.684-2.586,2.053c0,0.54,0.282,1.027,0.849,1.461
	c0.565,0.435,1.776,1.017,3.632,1.748c1.856,0.73,3.191,1.615,4.007,2.654c0.816,1.04,1.225,2.297,1.225,3.771
	c0,1.961-0.728,3.504-2.182,4.629c-1.455,1.125-3.432,1.688-5.932,1.688c-1.408,0-2.537-0.116-3.386-0.346
	C122.783,54.416,121.694,53.945,120.365,53.234z"/>
<path fill="#6699CC" d="M194.817,30.203V12.709h-2.768V8.568h7.878v21.635H194.817z M197.423,0.184c0.809,0,1.498,0.286,2.071,0.859
	c0.572,0.573,0.858,1.262,0.858,2.07c0,0.809-0.286,1.499-0.858,2.071c-0.574,0.573-1.263,0.858-2.071,0.858
	c-0.808,0-1.498-0.285-2.071-0.858c-0.573-0.572-0.858-1.262-0.858-2.071c0-0.808,0.285-1.497,0.858-2.07
	C195.925,0.47,196.615,0.184,197.423,0.184z"/>
<path fill="#6699CC" d="M218.311,13.274c-0.903-0.592-1.892-0.889-2.969-0.889c-1.172,0-2.212,0.532-3.121,1.596
	c-0.909,1.064-1.364,2.363-1.364,3.899v12.323h-5.05V8.568h5.05v1.979c1.415-1.588,3.292-2.384,5.636-2.384
	c1.724,0,3.043,0.263,3.959,0.788L218.311,13.274z"/>
</svg>
