<?xml version="1.0" encoding="utf-8"?>
<!-- Generator: Adobe Illustrator 15.1.0, SVG Export Plug-In  -->
<!DOCTYPE svg PUBLIC "-//W3C//DTD SVG 1.1//EN" "http://www.w3.org/Graphics/SVG/1.1/DTD/svg11.dtd" [
	<!ENTITY ns_flows "http://ns.adobe.com/Flows/1.0/">
]>
<svg version="1.1"
	 xmlns="http://www.w3.org/2000/svg" xmlns:xlink="http://www.w3.org/1999/xlink" xmlns:a="http://ns.adobe.com/AdobeSVGViewerExtensions/3.0/"
	 x="0px" y="0px" width="50px" height="282px" viewBox="0 0 50 282" enable-background="new 0 0 50 282" xml:space="preserve">
<defs>
</defs>
<path fill="#FFFFFF" d="M24.813,3.83c0.048,0.057,0.117,0.09,0.189,0.09s0.141-0.033,0.189-0.09l1.743-1.834
	c0.066-0.079,0.083-0.189,0.042-0.283c-0.042-0.095-0.132-0.156-0.231-0.156H26.12V0.263C26.12,0.117,26.008,0,25.869,0h-1.734
	c-0.14,0-0.252,0.117-0.252,0.263v1.293h-0.625c-0.1,0-0.189,0.061-0.23,0.156c-0.041,0.094-0.023,0.205,0.041,0.283L24.813,3.83z"
	/>
<path fill="#FFFFFF" d="M16.441,16.353c-0.721-0.839-1.433-1.776-2.074-2.619c-0.303-0.399-0.592-0.778-0.862-1.125l-0.021-0.025
	c0.396-1.178,0.623-2.142,0.674-2.866c0.129-1.844-0.069-3.032-0.603-3.631c-0.361-0.406-0.903-0.546-1.412-0.368
	c-0.365,0.128-0.859,0.47-1.142,1.374c-0.421,1.346-0.217,3.729,0.979,5.702c-0.534,1.459-1.278,3.136-2.101,4.732
	c-1.565,0.573-2.813,1.326-3.709,2.239c-1.171,1.192-1.646,2.375-1.307,3.246c0.21,0.539,0.695,0.861,1.298,0.861
	c0.419,0,0.872-0.158,1.312-0.457c1.107-0.757,2.555-3.275,3.331-4.734c1.605-0.523,3.191-0.737,3.997-0.818
	c0.364-0.036,0.727-0.066,1.074-0.087c1.411,1.554,2.564,2.374,3.627,2.578c0.214,0.042,0.428,0.063,0.637,0.063
	c0.865,0,1.581-0.361,1.915-0.964c0.252-0.457,0.247-0.989-0.014-1.46c-0.59-1.065-2.369-1.651-5.011-1.651
	C16.841,16.344,16.645,16.347,16.441,16.353z M6.739,22.246c-0.21,0.143-0.426,0.228-0.577,0.228c-0.028,0-0.048-0.002-0.06-0.006
	c-0.026-0.14,0.069-0.743,1.006-1.698c0.44-0.449,0.997-0.858,1.655-1.221C7.933,20.944,7.185,21.942,6.739,22.246z M12.277,7.528
	c0.098-0.313,0.219-0.454,0.294-0.48c0.002-0.001,0.003-0.001,0.005-0.001c0.073,0.085,0.383,0.575,0.244,2.572
	c-0.024,0.348-0.105,0.79-0.242,1.312C12.13,9.728,12.007,8.391,12.277,7.528z M14.673,16.472c-0.714,0.072-1.801,0.219-3.014,0.519
	c0.471-0.98,0.906-1.973,1.27-2.894c0.126,0.165,0.256,0.334,0.387,0.508c0.438,0.577,0.932,1.226,1.442,1.858L14.673,16.472z
	 M20.879,18.695c0.02,0.036,0.02,0.051,0.014,0.061c-0.056,0.102-0.311,0.265-0.754,0.265c-0.124,0-0.256-0.014-0.392-0.04
	c-0.554-0.107-1.199-0.506-1.969-1.219C19.866,17.866,20.71,18.391,20.879,18.695z"/>
<path fill="#FFFFFF" d="M19.285,0H1.928C0.864,0,0,0.899,0,2.013v31.976C0,35.099,0.864,36,1.928,36H25.07
	c1.066,0,1.928-0.9,1.928-2.011V8.049L19.285,0z M19.285,2.846l4.987,5.204h-4.987V2.846z M25.07,33.988H1.928V2.013h15.429v6.037
	c0,1.112,0.862,2.013,1.928,2.013h5.786V33.988L25.07,33.988z"/>
<path fill="#FFFFFF" d="M10.313,25.742c-0.158-0.146-0.347-0.251-0.562-0.313c-0.212-0.063-0.516-0.095-0.902-0.095H7.566
	c-0.244,0-0.429,0.058-0.548,0.175c-0.12,0.118-0.183,0.308-0.183,0.565v3.973c0,0.231,0.056,0.411,0.163,0.536
	c0.11,0.127,0.257,0.193,0.436,0.193c0.171,0,0.315-0.065,0.428-0.194c0.11-0.126,0.167-0.309,0.167-0.542v-1.359h0.82
	c0.634,0,1.12-0.145,1.446-0.429c0.331-0.289,0.499-0.716,0.499-1.271c0-0.258-0.041-0.493-0.121-0.702
	C10.592,26.069,10.471,25.889,10.313,25.742z M9.483,27.403C9.412,27.504,9.31,27.575,9.17,27.62
	c-0.148,0.048-0.337,0.073-0.563,0.073H8.029v-1.375h0.578c0.521,0,0.732,0.107,0.816,0.197c0.111,0.125,0.166,0.284,0.166,0.487
	C9.59,27.169,9.555,27.304,9.483,27.403z"/>
<path fill="#FFFFFF" d="M15.055,25.826c-0.208-0.19-0.443-0.322-0.699-0.391c-0.249-0.067-0.551-0.102-0.896-0.102h-1.304
	c-0.241,0-0.421,0.061-0.536,0.181c-0.114,0.12-0.173,0.309-0.173,0.56v3.779c0,0.177,0.016,0.319,0.046,0.434
	c0.035,0.129,0.11,0.23,0.223,0.3c0.108,0.068,0.26,0.101,0.461,0.101h1.304c0.23,0,0.441-0.016,0.627-0.047
	c0.188-0.032,0.367-0.088,0.531-0.167c0.166-0.078,0.319-0.185,0.46-0.315c0.175-0.168,0.321-0.361,0.434-0.575
	c0.111-0.213,0.195-0.455,0.248-0.719c0.053-0.26,0.08-0.553,0.08-0.867C15.859,27.033,15.588,26.303,15.055,25.826z M14.184,29.44
	c-0.064,0.06-0.143,0.106-0.231,0.14c-0.093,0.035-0.184,0.056-0.27,0.064c-0.091,0.01-0.22,0.014-0.382,0.014h-0.662V26.36h0.564
	c0.295,0,0.549,0.033,0.754,0.099c0.191,0.061,0.355,0.209,0.489,0.44c0.138,0.236,0.207,0.603,0.207,1.091
	C14.653,28.678,14.496,29.165,14.184,29.44z"/>
<path fill="#FFFFFF" d="M19.594,25.334h-2.358c-0.157,0-0.284,0.024-0.389,0.074c-0.111,0.053-0.194,0.14-0.247,0.257
	c-0.05,0.108-0.073,0.243-0.073,0.409v3.966c0,0.238,0.056,0.421,0.165,0.544c0.111,0.127,0.258,0.191,0.433,0.191
	c0.173,0,0.317-0.063,0.43-0.188c0.109-0.124,0.165-0.308,0.165-0.548v-1.599h1.552c0.174,0,0.31-0.044,0.403-0.13
	c0.098-0.091,0.147-0.211,0.147-0.359c0-0.149-0.048-0.271-0.144-0.36c-0.094-0.089-0.23-0.134-0.407-0.134h-1.552V26.34h1.875
	c0.184,0,0.325-0.046,0.421-0.137c0.098-0.094,0.147-0.217,0.147-0.367c0-0.148-0.05-0.271-0.148-0.365
	C19.918,25.379,19.776,25.334,19.594,25.334z"/>
<polygon fill="#FFFFFF" points="43.149,11.507 43.856,12.214 49.571,6.5 43.846,0.775 43.139,1.482 48.157,6.5 "/>
<polygon fill="#FFFFFF" points="39.561,1.482 38.854,0.775 33.139,6.49 38.864,12.214 39.571,11.507 34.553,6.49 "/>
<path d="M39.75,28.667c-3.722,0-6.75-3.028-6.75-6.75s3.028-6.75,6.75-6.75s6.75,3.028,6.75,6.75S43.472,28.667,39.75,28.667z
	 M39.75,17.167c-2.619,0-4.75,2.131-4.75,4.75s2.131,4.75,4.75,4.75s4.75-2.131,4.75-4.75S42.369,17.167,39.75,17.167z"/>
<rect x="42.98" y="27.223" transform="matrix(0.707 0.7072 -0.7072 0.707 33.8882 -24.5316)" width="7.144" height="2.824"/>
<path fill="#FFFFFF" d="M39.75,56.667c-3.722,0-6.75-3.028-6.75-6.75s3.028-6.75,6.75-6.75s6.75,3.028,6.75,6.75
	S43.472,56.667,39.75,56.667z M39.75,45.167c-2.619,0-4.75,2.131-4.75,4.75s2.131,4.75,4.75,4.75s4.75-2.131,4.75-4.75
	S42.369,45.167,39.75,45.167z"/>
<rect x="42.98" y="55.223" transform="matrix(0.707 0.7072 -0.7072 0.707 53.6891 -16.3286)" fill="#FFFFFF" width="7.144" height="2.824"/>
<polyline fill="none" stroke="#000000" stroke-width="1.674" stroke-miterlimit="10" points="36.929,35 42.021,40.071 47.113,35 "/>
<polyline fill="none" stroke="#FFFFFF" stroke-width="1.674" stroke-miterlimit="10" points="36.929,63 42.021,68.071 47.113,63 "/>
<polyline fill="none" stroke="#0A55B2" stroke-miterlimit="10" points="36.929,120 42.021,125.071 47.113,120 "/>
<ellipse fill="none" stroke="#0E68B0" stroke-miterlimit="10" cx="10.514" cy="74.561" rx="9.139" ry="9.575"/>
<path fill="none" stroke="#0E68B0" stroke-miterlimit="10" d="M10.514,84.136c-3.086,0-5.582-4.289-5.582-9.575
	c0-5.287,2.5-9.575,5.582-9.575"/>
<path fill="none" stroke="#0E68B0" stroke-miterlimit="10" d="M10.514,84.136c3.085,0,5.583-4.289,5.583-9.575
	c0-5.287-2.501-9.575-5.583-9.575"/>
<line fill="none" stroke="#0E68B0" stroke-miterlimit="10" x1="2.099" y1="70.823" x2="18.928" y2="70.823"/>
<line fill="none" stroke="#0E68B0" stroke-miterlimit="10" x1="2.099" y1="78.166" x2="18.928" y2="78.166"/>
<line fill="none" stroke="#0E68B0" stroke-miterlimit="10" x1="10.514" y1="64.986" x2="10.514" y2="84.101"/>
<polyline fill="none" stroke="#FFFFFF" stroke-width="2" stroke-miterlimit="10" points="34.603,72.443 25.485,81.599 
	34.603,90.753 "/>
<polyline fill="none" stroke="#FFFFFF" stroke-width="2" stroke-miterlimit="10" points="39.484,90.753 48.602,81.597 
	39.484,72.443 "/>
<polyline fill="none" stroke="#000000" stroke-width="2" stroke-miterlimit="10" points="39.484,114.753 48.602,105.597 
	39.484,96.443 "/>
<path fill="#FFFFFF" d="M26.73,100.099c0,0-0.264-1.862-1.073-2.681c-1.026-1.076-2.178-1.082-2.705-1.145
	C19.174,96,13.506,96,13.506,96h-0.012c0,0-5.668,0-9.446,0.273c-0.527,0.063-1.678,0.069-2.705,1.145
	c-0.81,0.818-1.073,2.681-1.073,2.681S0,102.284,0,104.471v2.049c0,2.187,0.27,4.373,0.27,4.373s0.264,1.861,1.073,2.681
	c1.027,1.076,2.376,1.042,2.978,1.155C6.48,114.936,13.5,115,13.5,115s5.674-0.009,9.452-0.282c0.527-0.063,1.679-0.068,2.705-1.145
	c0.81-0.819,1.073-2.681,1.073-2.681S27,108.706,27,106.52v-2.049C27,102.284,26.73,100.099,26.73,100.099z M11,109.244v-7.608
	l7.174,3.728L11,109.244z"/>
<path fill-rule="evenodd" clip-rule="evenodd" fill="#FFFFFF" d="M22.95,129.225c1.33,0.166,2.219,0.162,2.659-0.023l0.016,0.023
	c-0.551,0.833-1.503,1.271-2.864,1.318c-0.137,1.077-0.588,2.221-1.347,3.441c-1.663,2.341-3.766,3.957-6.317,4.85l-0.047,0.004
	c-2.627,0.902-5.317,1.025-8.061,0.366c-2.405-0.725-4.396-2.006-5.958-3.86c1.497,1.019,2.848,1.487,4.073,1.411l0.03-0.019
	c1.539-0.005,3.645-1.305,4.56-1.924c0.121-0.096,0.385-0.316,0.575-0.614l0.013-0.032c-0.02-0.363-5.546-2.403-5.497-2.732
	c0.03-0.215,1.539,0.244,1.601,0.104c0.061-0.14-0.411-0.307-0.928-0.463c-0.516-0.157-0.866-0.298-0.778-0.551
	c0.087-0.253,1.732,0.27,1.811,0.087c0.079-0.185-0.323-0.262-0.621-0.428c-0.297-0.166-1.413-0.888-0.288-0.909
	c1.206-0.023,4.146,1.887,4.225,1.782c0.079-0.104-0.062-0.263-0.446-0.594c-1.837-1.564-1.687-1.764-1.557-1.835
	c0.174-0.097,1.301,0.93,1.417,0.804c0.08-0.085-1.059-1.049-1.26-1.276c-0.201-0.227,0.078-0.445,0.35-0.244
	c0.184,0.136,1.383,0.856,1.496,0.734c0.114-0.123-0.962-1.161-0.988-1.319c-0.026-0.157,0.221-0.414,0.577-0.228
	c0.304,0.159,2.091,1.976,2.424,2.324c0.187,0.197,0.288,0.164,0.362,0.045l0.488-1.209c0,0,0.721-2.564,1.436-3.852l0.013-0.04
	c0.279-0.473,0.648-0.996,1.117-1.565c0.224-0.256,0.488-0.5,0.791-0.731c0.065,0.034-0.014,0.258-0.234,0.678
	c0.629-0.611,1.246-0.942,1.835-0.998c0.141,0.123-0.074,0.395-0.647,0.8c0.461-0.211,0.981-0.362,1.551-0.472
	c0.251,0.014,0.345,0.133,0.29,0.362c-0.183,0.291-0.827,0.626-1.951,0.953c-0.008,0.002-0.04,0.024-0.072,0.047l0.088-0.007
	c1.255-0.133,2.369,0.205,3.357,0.971c0.017,0.016,0.033,0.031,0.05,0.038c1.175,0.985,1.892,2.112,2.158,3.387
	c1.002,0.281,1.987,0.207,2.963-0.234c-0.221,0.748-1.035,1.264-2.461,1.517c-0.041,0.012-0.124,0.025-0.121,0.065
	C22.833,129.216,22.95,129.225,22.95,129.225z"/>
<path fill-rule="evenodd" clip-rule="evenodd" fill="#FFFFFF" d="M10.862,149.136c0,0.555,0,3.029,0,3.029H8.5v3.704h2.362v11.005
	h4.854v-11.005h3.257c0,0,0.305-1.776,0.452-3.719c-0.424,0-3.69,0-3.69,0s0-2.154,0-2.531c0-0.379,0.528-0.888,1.052-0.888
	c0.522,0,1.624,0,2.645,0c0-0.505,0-2.246,0-3.856c-1.362,0-2.912,0-3.596,0C10.742,144.875,10.862,148.584,10.862,149.136z"/>
<path fill-rule="evenodd" clip-rule="evenodd" fill="#FFFFFF" d="M21.2,192H6.171c-1.132,0-2.05-0.924-2.05-2.063v-15.125
	c0-1.139,0.918-2.063,2.05-2.063H21.2c1.132,0,2.05,0.924,2.05,2.063v15.125C23.25,191.076,22.332,192,21.2,192z M13.686,178.25
	c-2.264,0-4.099,1.847-4.099,4.125c0,2.277,1.835,4.126,4.099,4.126s4.1-1.849,4.1-4.126
	C17.785,180.097,15.949,178.25,13.686,178.25z M21.2,175.501c0-0.38-0.306-0.688-0.683-0.688h-2.732
	c-0.378,0-0.684,0.309-0.684,0.688v2.749c0,0.38,0.306,0.688,0.684,0.688h2.732c0.377,0,0.683-0.308,0.683-0.688V175.501z
	 M21.2,180.999h-1.519c0.1,0.443,0.152,0.903,0.152,1.376c0,3.417-2.753,6.187-6.148,6.187s-6.148-2.77-6.148-6.187
	c0-0.473,0.053-0.933,0.152-1.376H6.171v7.563c0,0.76,0.612,1.376,1.366,1.376h12.297c0.755,0,1.366-0.616,1.366-1.376V180.999z"/>
<path fill="#0A55B2" d="M25.734,201.711l-13.752,13.891l-5.272-5.348c-0.294-0.297-0.737-0.297-1.032,0s-0.295,0.743,0,1.04
	l5.789,5.832c0.147,0.148,0.332,0.223,0.516,0.223c0.185,0,0.369-0.074,0.516-0.223l14.269-14.375c0.295-0.297,0.295-0.743,0-1.04
	C26.508,201.452,26.029,201.452,25.734,201.711z"/>
<path fill="#0A55B2" d="M12.904,225c7.116,0,12.904-5.831,12.904-13c0-1.188-0.148-2.414-0.48-3.528
	c-0.109-0.409-0.515-0.632-0.921-0.52c-0.405,0.111-0.626,0.52-0.516,0.928c0.295,1.003,0.442,2.08,0.442,3.157
	c0,6.352-5.125,11.515-11.429,11.515S1.475,218.352,1.475,212s5.125-11.514,11.429-11.514c2.691,0,5.309,0.966,7.374,2.711
	c0.295,0.26,0.774,0.223,1.032-0.074c0.258-0.297,0.222-0.78-0.073-1.04c-2.323-2.006-5.31-3.083-8.333-3.083
	C5.789,199,0,204.832,0,212C0,219.169,5.789,225,12.904,225z"/>
<rect x="2.5" y="230.5" fill="none" stroke="#0A55B2" stroke-miterlimit="10" width="4" height="4"/>
<rect x="14.5" y="239.5" fill="none" stroke="#0A55B2" stroke-miterlimit="10" width="4" height="4"/>
<rect x="6.5" y="248.5" fill="none" stroke="#0A55B2" stroke-miterlimit="10" width="4" height="4"/>
<line fill="none" stroke="#0A55B2" stroke-miterlimit="10" x1="7" y1="232.5" x2="21" y2="232.5"/>
<line fill="none" stroke="#0A55B2" stroke-miterlimit="10" x1="0" y1="232.5" x2="2" y2="232.5"/>
<line fill="none" stroke="#0A55B2" stroke-miterlimit="10" x1="0" y1="241.5" x2="14" y2="241.5"/>
<line fill="none" stroke="#0A55B2" stroke-miterlimit="10" x1="19" y1="241.5" x2="21" y2="241.5"/>
<line fill="none" stroke="#0A55B2" stroke-miterlimit="10" x1="11" y1="250.5" x2="21" y2="250.5"/>
<line fill="none" stroke="#0A55B2" stroke-miterlimit="10" x1="0" y1="250.5" x2="6" y2="250.5"/>
<path fill="#52A54F" d="M42.002,261.312c-1.919-0.01-3.481,1.537-3.49,3.454c-0.01,1.916,1.539,3.477,3.458,3.485
	c1.92,0.008,3.482-1.538,3.491-3.453c0-0.005,0-0.011,0-0.017C45.461,262.872,43.915,261.32,42.002,261.312z M42.002,266.631
	c-1.022,0.01-1.859-0.812-1.869-1.833c-0.009-1.022,0.813-1.858,1.837-1.866c1.024-0.01,1.861,0.812,1.87,1.834
	c0,0.005,0,0.01,0,0.015c0.001,1.017-0.819,1.844-1.838,1.853V266.631z"/>
<path fill="#52A54F" d="M42.002,257.125c-4.19,0-7.697,3.356-7.984,7.633c-0.108,1.969,0.491,3.913,1.69,5.479l5.646,7.558
	c0.269,0.358,0.776,0.433,1.135,0.165c0.063-0.047,0.118-0.102,0.165-0.165l5.644-7.552c1.199-1.567,1.799-3.51,1.69-5.48
	C49.7,260.481,46.193,257.125,42.002,257.125z M46.997,269.273l-4.995,6.671l-4.994-6.671c-0.966-1.255-1.452-2.813-1.371-4.396
	c0.201-3.006,2.639-6.127,6.368-6.127s6.162,3.109,6.363,6.121C48.451,266.456,47.965,268.016,46.997,269.273z"/>
<path fill="#0A55B2" d="M42.002,233.687c-1.919-0.01-3.481,1.537-3.49,3.454c-0.01,1.916,1.539,3.477,3.458,3.485
	c1.92,0.008,3.482-1.538,3.491-3.453c0-0.005,0-0.011,0-0.017C45.461,235.247,43.915,233.695,42.002,233.687z M42.002,239.006
	c-1.022,0.01-1.859-0.812-1.869-1.833c-0.009-1.022,0.813-1.858,1.837-1.866c1.024-0.01,1.861,0.812,1.87,1.834
	c0,0.005,0,0.01,0,0.015c0.001,1.017-0.819,1.844-1.838,1.853V239.006z"/>
<path fill="#0A55B2" d="M42.002,229.5c-4.19,0-7.697,3.356-7.984,7.633c-0.108,1.969,0.491,3.913,1.69,5.479l5.646,7.558
	c0.269,0.358,0.776,0.433,1.135,0.165c0.063-0.047,0.118-0.102,0.165-0.165l5.644-7.552c1.199-1.567,1.799-3.51,1.69-5.48
	C49.7,232.856,46.193,229.5,42.002,229.5z M46.997,241.648l-4.995,6.671l-4.994-6.671c-0.966-1.255-1.452-2.813-1.371-4.396
	c0.201-3.006,2.639-6.127,6.368-6.127s6.162,3.109,6.363,6.121C48.451,238.831,47.965,240.391,46.997,241.648z"/>
<path fill="none" stroke="#0E68B0" stroke-width="0.725" stroke-miterlimit="10" d="M6.464,40.112c-0.133,0-0.242,0.108-0.242,0.242
	v2.923c-0.685,0.114-1.208,0.711-1.208,1.427c0,0.798,0.652,1.45,1.45,1.45c0.797,0,1.451-0.652,1.451-1.45
	c0-0.716-0.524-1.313-1.208-1.427v-2.923C6.706,40.22,6.598,40.112,6.464,40.112z M15.646,40.112c-0.133,0-0.241,0.108-0.241,0.242
	v2.923c-0.685,0.114-1.208,0.711-1.208,1.427c0,0.798,0.652,1.45,1.45,1.45c0.798,0,1.45-0.652,1.45-1.45
	c0-0.716-0.523-1.313-1.208-1.427v-2.923C15.888,40.22,15.78,40.112,15.646,40.112z M3.572,41.562c-1.204,0-2.183,0.979-2.183,2.183
	v14.484c0,1.205,0.979,2.183,2.183,2.183h12.74c0.608,1.149,1.813,1.933,3.202,1.933c2,0,3.625-1.625,3.625-3.625
	c0-1.576-1.009-2.915-2.417-3.414V43.745c0-1.204-0.978-2.183-2.182-2.183h-1.443c-0.127-0.001-0.245,0.115-0.245,0.242
	s0.118,0.243,0.245,0.242h1.443c0.944,0,1.698,0.755,1.698,1.699v3.617H1.873v-3.617c0-0.944,0.754-1.699,1.699-1.699h1.442
	c0.127,0.001,0.245-0.114,0.245-0.242s-0.117-0.244-0.245-0.242H3.572z M7.915,41.562c-0.134,0-0.242,0.109-0.242,0.242
	c0,0.134,0.108,0.242,0.242,0.242h6.282c0.134,0,0.241-0.108,0.241-0.242c0-0.133-0.107-0.242-0.241-0.242H7.915z M6.464,43.737
	c0.537,0,0.967,0.43,0.967,0.966S7,45.67,6.464,45.67s-0.966-0.43-0.966-0.966S5.927,43.737,6.464,43.737z M15.646,43.737
	c0.537,0,0.967,0.43,0.967,0.966s-0.43,0.966-0.967,0.966c-0.536,0-0.967-0.43-0.967-0.966S15.11,43.737,15.646,43.737z
	 M1.873,47.846h18.364v7.325c-0.232-0.047-0.477-0.075-0.724-0.075c-1.999,0-3.625,1.625-3.625,3.625
	c0,0.423,0.078,0.831,0.212,1.208H3.572c-0.944,0-1.699-0.755-1.699-1.699V47.846z M19.513,55.578c1.737,0,3.141,1.404,3.141,3.142
	c0,1.738-1.403,3.141-3.141,3.141c-1.738,0-3.141-1.403-3.141-3.141C16.372,56.981,17.775,55.578,19.513,55.578z"/>
<path fill="none" stroke="#52A54F" stroke-width="0.725" stroke-miterlimit="10" d="M6.076,257.143
	c-0.133,0-0.242,0.108-0.242,0.242v2.923c-0.685,0.114-1.208,0.711-1.208,1.427c0,0.798,0.652,1.45,1.45,1.45
	c0.797,0,1.451-0.652,1.451-1.45c0-0.716-0.524-1.313-1.208-1.427v-2.923C6.318,257.251,6.21,257.143,6.076,257.143z
	 M15.259,257.143c-0.133,0-0.241,0.108-0.241,0.242v2.923c-0.685,0.114-1.208,0.711-1.208,1.427c0,0.798,0.652,1.45,1.45,1.45
	c0.798,0,1.45-0.652,1.45-1.45c0-0.716-0.523-1.313-1.208-1.427v-2.923C15.5,257.251,15.392,257.143,15.259,257.143z M3.184,258.593
	c-1.204,0-2.183,0.979-2.183,2.183v14.484c0,1.205,0.979,2.183,2.183,2.183h12.74c0.608,1.149,1.813,1.933,3.202,1.933
	c2,0,3.625-1.625,3.625-3.625c0-1.576-1.009-2.915-2.417-3.414v-11.562c0-1.204-0.978-2.183-2.182-2.183h-1.443
	c-0.127-0.001-0.245,0.115-0.245,0.242s0.118,0.243,0.245,0.242h1.443c0.944,0,1.698,0.755,1.698,1.699v3.617H1.485v-3.617
	c0-0.944,0.754-1.699,1.699-1.699h1.442c0.127,0.001,0.245-0.114,0.245-0.242s-0.117-0.244-0.245-0.242H3.184z M7.527,258.593
	c-0.134,0-0.242,0.109-0.242,0.242c0,0.134,0.108,0.242,0.242,0.242h6.282c0.134,0,0.241-0.108,0.241-0.242
	c0-0.133-0.107-0.242-0.241-0.242H7.527z M6.076,260.768c0.537,0,0.967,0.43,0.967,0.966s-0.43,0.966-0.967,0.966
	s-0.966-0.43-0.966-0.966S5.54,260.768,6.076,260.768z M15.259,260.768c0.537,0,0.967,0.43,0.967,0.966s-0.43,0.966-0.967,0.966
	c-0.536,0-0.967-0.43-0.967-0.966S14.723,260.768,15.259,260.768z M1.485,264.876H19.85v7.325c-0.232-0.047-0.477-0.075-0.724-0.075
	c-1.999,0-3.625,1.625-3.625,3.625c0,0.423,0.078,0.831,0.212,1.208H3.184c-0.944,0-1.699-0.755-1.699-1.699V264.876z
	 M19.125,272.608c1.737,0,3.141,1.404,3.141,3.142c0,1.738-1.403,3.141-3.141,3.141c-1.738,0-3.141-1.403-3.141-3.141
	C15.984,274.012,17.388,272.608,19.125,272.608z"/>
<path fill-rule="evenodd" clip-rule="evenodd" fill="#F2F3F4" d="M35.85,138.103h13.734c-0.996-2.822-3.693-4.853-6.863-4.853
	C39.549,133.25,36.854,135.281,35.85,138.103"/>
<path fill-rule="evenodd" clip-rule="evenodd" fill="#253E97" d="M35.85,142.961h13.734c0.271-0.763,0.416-1.58,0.416-2.426
	c0-0.853-0.146-1.67-0.416-2.432H35.85c-0.264,0.762-0.415,1.579-0.415,2.432C35.435,141.381,35.586,142.199,35.85,142.961"/>
<path fill-rule="evenodd" clip-rule="evenodd" fill="#F91921" d="M49.584,142.961H35.85c1.004,2.829,3.699,4.852,6.871,4.852
	C45.891,147.813,48.588,145.791,49.584,142.961"/>
<g>
	<defs>
		<rect id="SVGID_3_" x="35.376" y="151.562" width="14.562" height="14.563"/>
	</defs>
	<clipPath id="SVGID_4_">
		<use xlink:href="#SVGID_3_"  overflow="visible"/>
	</clipPath>
	<path clip-path="url(#SVGID_4_)" fill-rule="evenodd" clip-rule="evenodd" fill="#FFFFFF" d="M49.938,158.846
		c0,4.018-3.26,7.279-7.283,7.279c-4.019,0-7.28-3.262-7.28-7.279c0-4.023,3.262-7.284,7.28-7.284
		C46.679,151.562,49.938,154.823,49.938,158.846"/>
	<path clip-path="url(#SVGID_4_)" fill-rule="evenodd" clip-rule="evenodd" fill="#DC1935" d="M46.895,156.829l2.263-1.269
		c-0.125-0.252-0.271-0.498-0.425-0.732l-3.567,2.001H46.895z"/>
	<path clip-path="url(#SVGID_4_)" fill-rule="evenodd" clip-rule="evenodd" fill="#DC1935" d="M46.505,161.153l2.438,1.368
		c0.143-0.246,0.269-0.493,0.384-0.756l-1.1-0.612H46.505z"/>
	<path clip-path="url(#SVGID_4_)" fill-rule="evenodd" clip-rule="evenodd" fill="#DC1935" d="M35.976,155.939l1.587,0.89h1.729
		l-2.93-1.648C36.223,155.422,36.09,155.675,35.976,155.939"/>
	<path clip-path="url(#SVGID_4_)" fill-rule="evenodd" clip-rule="evenodd" fill="#DC1935" d="M38.901,161.153l-2.511,1.403
		c0.145,0.248,0.306,0.481,0.476,0.703l3.759-2.106H38.901z"/>
	<path clip-path="url(#SVGID_4_)" fill-rule="evenodd" clip-rule="evenodd" fill="#282B7A" d="M44.69,151.851v4.604l3.718-2.077
		C47.477,153.183,46.18,152.283,44.69,151.851"/>
	<path clip-path="url(#SVGID_4_)" fill-rule="evenodd" clip-rule="evenodd" fill="#282B7A" d="M36.973,154.288l3.857,2.167v-4.66
		C39.285,152.191,37.947,153.082,36.973,154.288"/>
	<path clip-path="url(#SVGID_4_)" fill-rule="evenodd" clip-rule="evenodd" fill="#282B7A" d="M49.591,156.612l-0.379,0.217h0.445
		C49.632,156.756,49.614,156.683,49.591,156.612"/>
	<path clip-path="url(#SVGID_4_)" fill-rule="evenodd" clip-rule="evenodd" fill="#282B7A" d="M49.567,161.153h-0.355l0.294,0.167
		C49.531,161.261,49.549,161.205,49.567,161.153"/>
	<path clip-path="url(#SVGID_4_)" fill-rule="evenodd" clip-rule="evenodd" fill="#282B7A" d="M40.83,165.896v-4.371l-3.693,2.066
		C38.09,164.7,39.369,165.517,40.83,165.896"/>
	<path clip-path="url(#SVGID_4_)" fill-rule="evenodd" clip-rule="evenodd" fill="#282B7A" d="M48.247,163.512l-3.557-1.987v4.312
		C46.096,165.428,47.332,164.605,48.247,163.512"/>
	<path clip-path="url(#SVGID_4_)" fill-rule="evenodd" clip-rule="evenodd" fill="#282B7A" d="M35.844,161.416l0.469-0.263h-0.564
		C35.779,161.242,35.809,161.326,35.844,161.416"/>
	<path clip-path="url(#SVGID_4_)" fill-rule="evenodd" clip-rule="evenodd" fill="#282B7A" d="M35.658,156.829h0.654l-0.559-0.313
		C35.719,156.618,35.688,156.72,35.658,156.829"/>
	<path clip-path="url(#SVGID_4_)" fill-rule="evenodd" clip-rule="evenodd" fill="#DC1935" d="M49.849,157.692h-5.927v-6.022
		c-0.414-0.073-0.834-0.109-1.267-0.109c-0.355,0-0.708,0.024-1.051,0.079v6.052h-6.139c-0.06,0.374-0.091,0.758-0.091,1.153
		c0,0.493,0.05,0.974,0.146,1.442h6.084v5.766c0.343,0.048,0.695,0.072,1.051,0.072c0.433,0,0.853-0.037,1.267-0.108v-5.729h5.872"
		/>
</g>
<g>
	<defs>
		<rect id="SVGID_2_" x="35.437" y="169.31" width="14.563" height="14.565"/>
	</defs>
	<clipPath id="SVGID_5_">
		<use xlink:href="#SVGID_2_"  overflow="visible"/>
	</clipPath>
	<path clip-path="url(#SVGID_5_)" fill-rule="evenodd" clip-rule="evenodd" fill="#253E97" d="M38.561,182.564v-11.951
		c-1.888,1.316-3.124,3.502-3.124,5.976C35.437,179.063,36.673,181.249,38.561,182.564"/>
	<path clip-path="url(#SVGID_5_)" fill-rule="evenodd" clip-rule="evenodd" fill="#F2F3F4" d="M42.716,183.875h0.006
		c1.551,0,2.979-0.488,4.162-1.311v-11.952c-1.183-0.822-2.618-1.303-4.162-1.303c-1.55,0-2.984,0.481-4.16,1.303v11.952
		C39.737,183.387,41.172,183.875,42.716,183.875"/>
	<path clip-path="url(#SVGID_5_)" fill-rule="evenodd" clip-rule="evenodd" fill="#F91831" d="M46.884,170.613v11.951
		c1.885-1.315,3.116-3.501,3.116-5.974C50,174.115,48.769,171.929,46.884,170.613"/>
</g>
<g>
	<defs>
		<rect id="SVGID_1_" x="35.437" y="187" width="14.563" height="14.563"/>
	</defs>
	<clipPath id="SVGID_6_">
		<use xlink:href="#SVGID_1_"  overflow="visible"/>
	</clipPath>
	<path clip-path="url(#SVGID_6_)" fill-rule="evenodd" clip-rule="evenodd" fill="#EA1B22" d="M42.721,187
		c4.018,0,7.279,3.261,7.279,7.284c0,4.018-3.262,7.279-7.279,7.279c-4.022,0-7.284-3.262-7.284-7.279
		C35.437,190.262,38.698,187,42.721,187"/>
	<polygon clip-path="url(#SVGID_6_)" fill-rule="evenodd" clip-rule="evenodd" fill="#FFDD00" points="37.839,192.273 
		38.308,190.819 37.075,189.919 38.603,189.914 39.075,188.466 39.558,189.914 41.082,189.919 39.844,190.819 40.313,192.273 
		39.075,191.378 	"/>
	<polygon clip-path="url(#SVGID_6_)" fill-rule="evenodd" clip-rule="evenodd" fill="#FFDD00" points="42.096,193.061 
		42.612,193.265 42.973,192.845 42.931,193.396 43.447,193.605 42.906,193.739 42.871,194.291 42.57,193.823 42.036,193.956 
		42.39,193.528 	"/>
	<polygon clip-path="url(#SVGID_6_)" fill-rule="evenodd" clip-rule="evenodd" fill="#FFDD00" points="44.889,190.267 
		44.343,190.171 44.078,190.659 44,190.11 43.454,190.01 43.952,189.769 43.874,189.217 44.264,189.619 44.764,189.372 
		44.505,189.864 	"/>
	<polygon clip-path="url(#SVGID_6_)" fill-rule="evenodd" clip-rule="evenodd" fill="#FFDD00" points="43.724,192.754 
		43.898,192.225 43.447,191.896 44,191.896 44.174,191.366 44.349,191.896 44.9,191.901 44.457,192.225 44.624,192.754 
		44.174,192.43 	"/>
	<polygon clip-path="url(#SVGID_6_)" fill-rule="evenodd" clip-rule="evenodd" fill="#FFDD00" points="42.126,187.925 
		42.631,188.159 43.009,187.757 42.943,188.309 43.447,188.543 42.9,188.652 42.828,189.198 42.56,188.718 42.013,188.82 
		42.391,188.412 	"/>
</g>
</svg>
