<?xml version="1.0" encoding="utf-8"?>
<!-- Generator: Adobe Illustrator 15.1.0, SVG Export Plug-In . SVG Version: 6.00 Build 0)  -->
<!DOCTYPE svg PUBLIC "-//W3C//DTD SVG 1.1//EN" "http://www.w3.org/Graphics/SVG/1.1/DTD/svg11.dtd">
<svg version="1.1" id="Layer_1" xmlns="http://www.w3.org/2000/svg" xmlns:xlink="http://www.w3.org/1999/xlink" x="0px" y="0px"
	 width="50px" height="121px" viewBox="-0.5 -0.5 50 121" enable-background="new -0.5 -0.5 50 121" xml:space="preserve">
<polygon fill="#FFFFFF" points="44,6.125 38.5,0.649 39.644,-0.5 44,3.839 48.356,-0.5 49.5,0.649 "/>
<polygon points="44,15.093 38.5,9.617 39.644,8.468 44,12.807 48.356,8.468 49.5,9.617 "/>
<polygon points="49.5,23.162 46.628,20.495 40.813,26.106 37.539,22.976 34.832,25.721 40.879,31.5 43.667,28.833 43.617,28.785 "/>
<path d="M-0.309,3.622c-0.382,1.434-0.187,2.938,0.552,4.22c0.997,1.718,2.848,2.786,4.824,2.786c0.748,0,1.486-0.151,2.181-0.445
	l2.893,5.012l1.157-0.668L8.406,9.515c0.997-0.748,1.708-1.789,2.039-3.009c0.382-1.434,0.187-2.938-0.552-4.219
	C8.895,0.568,7.043-0.5,5.059-0.5c-0.97,0-1.931,0.258-2.777,0.748C1,0.987,0.074,2.189-0.309,3.622z M5.059,0.836
	c1.504,0,2.911,0.81,3.668,2.119c0.56,0.979,0.711,2.118,0.418,3.205C8.851,7.254,8.157,8.161,7.178,8.723
	c-0.642,0.374-1.371,0.57-2.11,0.57c-1.504,0-2.911-0.811-3.667-2.119C0.839,6.194,0.688,5.055,0.981,3.969
	c0.294-1.086,0.997-2.003,1.968-2.563C3.599,1.032,4.329,0.836,5.059,0.836z"/>
</svg>
