<?xml version="1.0" encoding="utf-8"?>
<!-- Generator: Adobe Illustrator 15.1.0, SVG Export Plug-In  -->
<!DOCTYPE svg PUBLIC "-//W3C//DTD SVG 1.1//EN" "http://www.w3.org/Graphics/SVG/1.1/DTD/svg11.dtd" [
	<!ENTITY ns_flows "http://ns.adobe.com/Flows/1.0/">
]>
<svg version="1.1"
	 xmlns="http://www.w3.org/2000/svg" xmlns:xlink="http://www.w3.org/1999/xlink" xmlns:a="http://ns.adobe.com/AdobeSVGViewerExtensions/3.0/"
	 x="0px" y="0px" width="14px" height="13px" viewBox="-1 0 14 13" enable-background="new -1 0 14 13" xml:space="preserve">
<defs>
</defs>
<path fill="#FFFFFF" d="M12.993,10.26c0.028,0.211-0.036,0.395-0.192,0.551l-1.83,1.817c-0.083,0.092-0.19,0.17-0.323,0.234
	c-0.134,0.064-0.264,0.105-0.393,0.124c-0.009,0-0.037,0.002-0.083,0.007C10.127,12.998,10.066,13,9.993,13
	c-0.174,0-0.456-0.029-0.847-0.09c-0.39-0.06-0.866-0.206-1.431-0.44s-1.204-0.585-1.92-1.054c-0.716-0.468-1.478-1.11-2.284-1.928
	C2.869,8.855,2.337,8.249,1.915,7.67C1.493,7.092,1.153,6.558,0.896,6.066S0.447,5.13,0.318,4.73
	C0.19,4.331,0.103,3.987,0.058,3.697C0.012,3.408-0.007,3.181,0.002,3.016c0.01-0.165,0.014-0.257,0.014-0.275
	c0.019-0.128,0.06-0.259,0.124-0.392c0.064-0.133,0.143-0.241,0.234-0.324l1.83-1.832C2.332,0.064,2.479,0,2.645,0
	c0.119,0,0.225,0.034,0.316,0.104c0.092,0.068,0.17,0.153,0.234,0.254l1.473,2.796C4.75,3.301,4.773,3.461,4.736,3.636
	C4.699,3.81,4.621,3.957,4.502,4.076L3.828,4.751C3.81,4.77,3.793,4.799,3.779,4.841C3.766,4.882,3.759,4.917,3.759,4.944
	c0.037,0.193,0.119,0.413,0.248,0.661c0.11,0.22,0.28,0.489,0.509,0.806c0.229,0.317,0.556,0.681,0.978,1.095
	c0.413,0.422,0.78,0.75,1.101,0.984c0.321,0.234,0.59,0.406,0.806,0.516c0.216,0.11,0.381,0.178,0.495,0.2L8.066,9.24
	c0.019,0,0.049-0.007,0.09-0.021s0.071-0.03,0.09-0.048L9.03,8.373c0.165-0.146,0.357-0.221,0.578-0.221
	c0.155,0,0.279,0.027,0.371,0.083h0.014l2.656,1.569C12.842,9.924,12.957,10.076,12.993,10.26z"/>
</svg>
