<?xml version="1.0" encoding="utf-8"?>
<!-- Generator: Adobe Illustrator 15.1.0, SVG Export Plug-In . SVG Version: 6.00 Build 0)  -->
<!DOCTYPE svg PUBLIC "-//W3C//DTD SVG 1.1//EN" "http://www.w3.org/Graphics/SVG/1.1/DTD/svg11.dtd">
<svg version="1.1" id="Layer_1" xmlns="http://www.w3.org/2000/svg" xmlns:xlink="http://www.w3.org/1999/xlink" x="0px" y="0px"
	 width="21px" height="21px" viewBox="239.5 239.5 21 21" enable-background="new 239.5 239.5 21 21" xml:space="preserve">
<path fill="#FFFFFF" d="M250.028,244.619c-2.972,0-5.369,2.403-5.369,5.381c0,2.979,2.397,5.381,5.369,5.381
	c2.973,0,5.37-2.401,5.37-5.381C255.397,247.021,253.001,244.619,250.028,244.619z M250.028,253.498c-1.92,0-3.49-1.568-3.49-3.498
	s1.565-3.499,3.49-3.499c1.926,0,3.492,1.569,3.492,3.499S251.949,253.498,250.028,253.498L250.028,253.498z M256.87,244.398
	c0,0.698-0.562,1.255-1.252,1.255c-0.696,0-1.253-0.562-1.253-1.255s0.561-1.255,1.253-1.255
	C256.309,243.143,256.87,243.705,256.87,244.398z M260.427,245.672c-0.08-1.682-0.464-3.17-1.692-4.398
	c-1.225-1.227-2.71-1.611-4.388-1.695c-1.729-0.099-6.912-0.099-8.642,0c-1.672,0.08-3.159,0.464-4.388,1.69
	c-1.229,1.228-1.608,2.717-1.692,4.398c-0.098,1.732-0.098,6.927,0,8.66c0.079,1.681,0.463,3.17,1.692,4.397s2.71,1.611,4.388,1.695
	c1.729,0.098,6.912,0.098,8.642,0c1.678-0.079,3.163-0.464,4.388-1.695c1.225-1.228,1.607-2.717,1.692-4.397
	C260.524,252.595,260.524,247.405,260.427,245.672z M258.192,256.187c-0.364,0.918-1.069,1.625-1.99,1.996
	c-1.379,0.547-4.65,0.422-6.174,0.422c-1.523,0-4.799,0.121-6.173-0.422c-0.916-0.365-1.622-1.073-1.991-1.996
	c-0.547-1.381-0.421-4.66-0.421-6.187c0-1.527-0.122-4.81,0.421-6.187c0.364-0.918,1.07-1.625,1.991-1.995
	c1.378-0.548,4.65-0.421,6.173-0.421c1.524,0,4.799-0.122,6.174,0.421c0.916,0.365,1.621,1.072,1.99,1.995
	c0.547,1.382,0.421,4.66,0.421,6.187C258.613,251.526,258.739,254.81,258.192,256.187z"/>
</svg>
